<svg id="svg" version="1.1" xmlns="http://www.w3.org/2000/svg" xmlns:xlink="http://www.w3.org/1999/xlink" width="400" height="400" viewBox="0, 0, 400,400"><g id="svgg"><path id="path0" d="M366.000 167.478 C 366.000 167.875,368.085 170.000,368.475 170.000 C 369.117 170.000,368.782 168.923,367.874 168.070 C 366.974 167.224,366.000 166.916,366.000 167.478 M111.909 234.816 C 112.410 235.017,112.983 235.590,113.184 236.091 C 113.526 236.942,113.551 236.948,113.575 236.180 C 113.607 235.132,112.868 234.393,111.820 234.425 C 111.052 234.449,111.058 234.474,111.909 234.816 M110.184 235.500 C 110.374 236.677,109.589 237.200,107.629 237.200 C 105.749 237.200,104.924 237.614,100.841 240.604 C 100.093 241.152,99.151 241.600,98.746 241.600 C 98.289 241.600,97.797 242.111,97.446 242.951 C 97.013 243.988,96.448 244.468,95.019 245.014 C 93.794 245.482,92.955 246.114,92.570 246.859 C 92.247 247.482,91.312 248.341,90.492 248.767 C 89.671 249.194,88.145 250.337,87.100 251.308 C 86.054 252.279,84.479 253.289,83.600 253.553 C 82.720 253.816,82.000 254.191,82.000 254.385 C 82.000 255.180,79.938 257.112,78.859 257.328 C 78.094 257.481,77.420 258.039,76.867 258.977 C 76.339 259.872,75.457 260.624,74.476 261.016 C 73.622 261.358,72.529 262.170,72.049 262.819 C 71.568 263.469,70.146 264.527,68.888 265.170 C 67.629 265.814,66.115 266.962,65.522 267.721 C 64.828 268.610,63.972 269.192,63.122 269.352 C 62.136 269.538,61.597 269.975,61.000 271.072 C 60.456 272.072,59.753 272.690,58.800 273.005 C 57.434 273.457,57.066 273.924,55.816 276.800 C 54.926 278.846,55.807 283.177,57.257 283.886 C 59.005 284.741,59.625 285.763,59.658 287.846 C 59.690 289.934,60.437 291.200,61.635 291.200 C 62.371 291.200,63.486 292.579,64.319 294.519 C 64.584 295.134,65.330 295.942,65.979 296.314 C 67.245 297.041,67.996 298.302,68.006 299.719 C 68.014 300.864,68.477 301.563,69.605 302.136 C 70.108 302.391,70.997 303.540,71.583 304.688 C 72.182 305.865,73.247 307.180,74.023 307.702 C 74.780 308.212,75.681 309.222,76.026 309.947 C 76.370 310.672,77.234 311.548,77.946 311.893 C 78.659 312.238,79.507 313.034,79.832 313.662 C 80.157 314.290,81.143 315.259,82.024 315.815 C 82.905 316.371,83.904 317.410,84.244 318.124 C 84.585 318.838,85.391 319.724,86.035 320.094 C 86.680 320.464,87.588 321.411,88.052 322.198 C 88.531 323.010,89.483 323.874,90.250 324.195 C 91.008 324.512,91.968 325.378,92.431 326.163 C 92.886 326.934,93.650 327.687,94.129 327.836 C 95.235 328.180,97.980 330.094,97.991 330.529 C 98.003 330.957,99.049 331.999,99.471 332.002 C 100.949 332.012,102.872 332.979,103.384 333.969 C 103.748 334.672,104.619 335.359,105.685 335.784 C 107.750 336.606,108.800 337.488,108.800 338.400 C 108.800 339.549,110.143 340.400,111.958 340.400 C 114.118 340.400,115.014 340.890,115.522 342.349 C 115.936 343.536,116.459 343.803,120.311 344.796 C 121.771 345.172,122.114 345.468,122.654 346.818 C 123.232 348.263,123.416 348.400,124.771 348.400 C 127.563 348.400,130.400 349.503,130.400 350.589 C 130.400 351.734,130.783 351.868,135.000 352.206 C 137.982 352.444,140.056 353.346,139.935 354.353 C 139.646 356.754,140.815 357.451,143.716 356.607 C 147.264 355.576,151.200 356.632,151.200 358.616 C 151.200 360.980,152.863 361.648,156.200 360.623 C 161.140 359.106,168.510 361.157,166.984 363.625 C 166.863 363.822,166.958 364.347,167.196 364.792 C 167.474 365.312,167.485 365.600,167.227 365.600 C 166.675 365.600,167.151 366.813,168.129 367.900 C 169.075 368.951,169.817 369.053,170.153 368.179 C 170.284 367.838,170.239 367.652,170.054 367.767 C 169.868 367.882,169.319 367.552,168.832 367.034 L 167.948 366.094 169.274 365.872 C 170.003 365.749,171.860 365.361,173.400 365.009 C 177.449 364.082,220.112 363.783,225.145 364.646 C 229.287 365.357,229.999 365.718,230.003 367.114 L 230.007 368.200 231.403 366.727 C 232.510 365.560,232.800 364.928,232.800 363.689 C 232.800 360.389,238.081 358.971,244.089 360.657 C 247.180 361.524,248.400 361.060,248.400 359.018 C 248.400 356.560,252.488 355.290,256.448 356.517 C 258.742 357.229,259.439 356.885,260.011 354.758 C 260.533 352.820,261.735 352.180,265.108 352.044 C 267.574 351.944,268.145 351.644,268.905 350.049 C 269.308 349.203,269.869 348.900,271.802 348.485 C 275.688 347.649,276.104 347.459,276.797 346.200 C 277.451 345.014,277.891 344.833,282.649 343.795 C 283.117 343.694,283.721 343.074,283.992 342.418 C 284.710 340.685,285.282 340.360,287.861 340.224 C 289.330 340.146,290.272 339.901,290.441 339.551 C 290.587 339.248,290.934 338.514,291.211 337.920 C 291.529 337.237,292.501 336.467,293.857 335.825 C 295.036 335.267,296.000 334.653,296.000 334.460 C 296.000 333.722,298.153 332.000,299.075 332.000 C 299.661 332.000,300.544 331.459,301.320 330.623 C 302.024 329.865,303.543 328.776,304.696 328.204 C 305.849 327.631,307.003 326.765,307.261 326.281 C 307.520 325.796,308.013 325.192,308.359 324.937 C 309.910 323.794,308.576 320.419,306.177 319.416 C 305.455 319.114,304.731 318.400,304.443 317.703 C 304.170 317.045,303.464 316.266,302.874 315.971 C 301.316 315.193,300.354 314.319,299.981 313.345 C 299.801 312.874,298.878 312.062,297.929 311.538 C 296.981 311.015,295.960 310.077,295.661 309.453 C 295.290 308.680,294.333 307.952,292.647 307.163 C 291.060 306.421,289.925 305.581,289.472 304.815 C 289.004 304.022,288.220 303.458,287.131 303.132 C 285.932 302.773,285.362 302.326,284.999 301.461 C 284.682 300.709,283.874 299.976,282.769 299.441 C 281.787 298.964,280.756 298.080,280.390 297.400 C 280.035 296.740,279.076 295.881,278.259 295.490 C 277.442 295.100,276.609 294.349,276.408 293.820 C 276.207 293.292,275.131 292.263,274.018 291.534 C 272.904 290.805,271.893 289.892,271.770 289.505 C 271.647 289.118,270.794 288.280,269.873 287.642 C 268.953 287.004,267.402 285.741,266.427 284.836 C 265.452 283.930,263.922 282.980,263.027 282.724 C 262.132 282.469,261.169 282.085,260.887 281.871 C 260.534 281.602,260.224 281.680,259.887 282.123 C 259.262 282.946,257.497 283.598,255.874 283.606 C 254.279 283.614,253.874 283.882,253.058 285.476 C 252.190 287.170,250.930 287.999,249.211 288.005 C 247.091 288.014,246.000 288.414,246.000 289.185 C 246.000 291.124,242.576 292.346,239.591 291.471 C 237.092 290.739,237.173 290.706,237.030 292.504 C 236.892 294.247,236.627 294.662,235.173 295.414 C 233.609 296.223,227.564 295.610,226.325 294.517 C 225.302 293.614,224.800 294.237,224.800 296.413 C 224.800 298.813,223.817 299.498,219.841 299.869 C 216.921 300.142,207.733 299.398,204.200 298.602 C 201.966 298.100,199.436 298.195,194.200 298.980 C 180.982 300.960,174.978 300.145,175.020 296.375 C 175.042 294.349,174.528 293.760,173.528 294.665 C 172.565 295.537,166.357 296.009,165.027 295.312 C 163.946 294.746,163.669 294.113,163.530 291.887 C 163.473 290.976,163.122 290.101,162.649 289.687 C 162.216 289.309,161.979 289.201,162.122 289.447 C 162.492 290.085,161.257 291.051,159.439 291.545 C 157.701 292.017,154.000 290.816,154.000 289.779 C 154.000 288.801,152.752 288.000,151.225 288.000 C 149.261 288.000,147.769 286.825,147.428 285.010 C 147.128 283.409,146.109 282.948,143.722 283.335 C 141.905 283.630,140.998 283.143,140.453 281.581 C 140.144 280.694,139.583 280.172,138.467 279.733 C 137.403 279.316,136.707 278.695,136.267 277.771 C 135.857 276.912,135.108 276.205,134.209 275.830 C 133.382 275.484,132.445 274.644,131.950 273.805 C 131.485 273.016,130.571 272.095,129.920 271.759 C 129.265 271.420,128.478 270.528,128.157 269.759 C 127.838 268.996,127.177 268.219,126.689 268.032 C 125.623 267.624,124.586 266.501,124.249 265.390 C 124.114 264.945,123.238 264.225,122.302 263.790 C 120.895 263.137,120.525 262.723,120.168 261.400 C 119.859 260.254,119.405 259.641,118.568 259.238 C 116.926 258.448,116.746 258.064,116.962 255.800 C 117.185 253.465,116.622 252.443,115.043 252.312 C 112.884 252.133,110.977 247.116,112.821 246.467 C 113.268 246.309,113.338 245.578,112.900 245.647 C 112.735 245.673,112.420 245.646,112.200 245.587 C 111.980 245.528,111.350 245.461,110.800 245.440 C 107.387 245.304,107.893 237.863,111.321 237.781 C 112.157 237.761,112.933 237.892,113.045 238.072 C 113.404 238.654,114.000 238.421,113.994 237.700 C 113.989 237.159,113.910 237.122,113.646 237.539 C 113.396 237.934,113.190 237.747,112.873 236.836 C 112.615 236.098,112.016 235.434,111.394 235.198 C 110.040 234.683,110.051 234.680,110.184 235.500 M111.771 236.229 C 112.687 237.144,112.546 237.489,111.300 237.378 C 109.812 237.245,109.845 237.269,110.348 236.663 C 110.593 236.368,110.675 236.008,110.530 235.863 C 110.385 235.718,110.464 235.600,110.705 235.600 C 110.946 235.600,111.426 235.883,111.771 236.229 M283.757 242.791 C 283.221 243.008,282.764 243.727,282.500 244.766 C 281.990 246.775,282.193 246.869,282.980 244.987 C 283.364 244.067,284.029 243.375,284.885 243.003 C 286.330 242.375,285.276 242.177,283.757 242.791 M114.600 243.178 C 115.489 243.542,116.578 244.681,116.916 245.600 C 117.088 246.066,117.144 246.040,117.168 245.482 C 117.209 244.556,115.450 242.792,114.518 242.825 C 113.886 242.848,113.896 242.890,114.600 243.178 M142.000 276.884 C 142.000 277.657,142.244 277.953,143.000 278.098 C 143.550 278.203,144.000 278.165,144.000 278.014 C 144.000 277.863,143.550 277.317,143.000 276.800 L 142.000 275.861 142.000 276.884 M148.000 278.356 C 148.000 278.551,148.315 278.686,148.700 278.656 C 149.139 278.621,149.379 278.861,149.344 279.300 C 149.314 279.685,149.449 280.000,149.644 280.000 C 150.159 280.000,150.081 279.041,149.520 278.480 C 148.959 277.919,148.000 277.841,148.000 278.356 M153.600 282.237 C 153.600 282.321,154.236 282.655,155.013 282.980 C 155.933 283.364,156.625 284.029,156.997 284.885 C 157.622 286.324,157.827 285.449,157.231 283.883 C 156.923 283.071,153.600 281.565,153.600 282.237 M163.592 286.914 C 164.138 287.190,164.810 287.862,165.086 288.408 L 165.588 289.400 165.594 288.380 C 165.602 287.083,164.917 286.398,163.620 286.406 L 162.600 286.412 163.592 286.914 M163.334 288.500 C 164.030 289.215,164.664 289.652,164.743 289.471 C 164.936 289.027,163.185 287.200,162.565 287.200 C 162.292 287.200,162.638 287.785,163.334 288.500 M162.000 288.130 C 162.000 288.518,163.635 290.099,163.832 289.902 C 163.923 289.811,163.548 289.314,162.998 288.799 C 162.449 288.283,162.000 287.982,162.000 288.130 M340.300 297.865 C 341.345 298.287,339.802 300.800,338.498 300.800 C 338.250 300.800,337.940 300.973,337.810 301.184 C 337.278 302.045,340.086 300.641,340.665 299.757 C 341.336 298.733,341.145 297.580,340.313 297.632 C 339.911 297.656,339.908 297.707,340.300 297.865 M120.000 350.125 C 120.000 350.194,120.509 350.738,121.132 351.335 L 122.264 352.420 122.087 351.210 C 121.942 350.222,120.000 349.213,120.000 350.125 " stroke="none" fill="#4cac53" fill-rule="evenodd"></path><path id="path1" d="M275.800 167.201 C 233.120 167.314,198.155 167.450,198.100 167.504 C 198.045 167.557,198.000 182.159,198.000 199.953 L 198.000 232.307 198.900 232.548 C 199.395 232.681,220.371 232.792,245.513 232.795 C 284.892 232.799,291.421 232.882,292.638 233.390 L 294.050 233.980 292.610 235.245 C 290.545 237.058,290.329 237.628,290.826 239.948 C 291.421 242.720,290.716 244.083,288.615 244.224 C 286.546 244.362,286.123 244.877,286.720 246.529 C 287.696 249.229,287.023 251.590,285.271 251.606 C 283.977 251.618,283.504 252.328,282.842 255.252 L 282.175 258.200 280.688 258.324 C 279.239 258.445,279.200 258.490,279.200 260.050 C 279.200 262.175,278.679 263.044,277.233 263.333 C 276.242 263.532,275.962 263.854,275.592 265.229 C 275.216 266.626,274.898 266.983,273.565 267.507 C 272.552 267.905,271.902 268.451,271.758 269.026 C 271.489 270.097,270.140 271.405,268.925 271.773 C 268.407 271.930,267.871 272.579,267.612 273.364 C 267.294 274.327,266.743 274.885,265.596 275.402 C 263.709 276.253,263.455 276.896,263.827 279.878 C 264.131 282.315,264.018 282.167,268.395 285.800 C 269.720 286.900,271.568 288.443,272.502 289.229 C 273.436 290.015,274.920 291.179,275.800 291.815 C 276.680 292.452,278.056 293.547,278.859 294.248 C 279.661 294.949,280.929 295.813,281.676 296.168 C 282.424 296.523,283.355 297.354,283.746 298.016 C 284.136 298.677,284.938 299.519,285.528 299.887 C 286.118 300.254,287.442 301.375,288.472 302.378 C 292.366 306.168,297.563 310.635,300.000 312.287 C 300.990 312.958,302.160 313.911,302.600 314.405 C 303.040 314.899,304.116 315.759,304.992 316.315 C 305.868 316.871,306.919 317.752,307.327 318.271 C 309.449 320.968,316.085 321.669,316.657 319.256 C 316.997 317.820,317.951 316.801,318.962 316.794 C 320.213 316.785,320.688 316.345,321.080 314.831 C 321.376 313.690,321.696 313.389,323.007 313.021 C 324.348 312.645,324.643 312.357,325.005 311.066 C 325.469 309.411,326.124 308.816,327.492 308.806 C 328.140 308.802,328.449 308.498,328.620 307.700 C 328.994 305.954,329.552 304.790,330.097 304.622 C 330.373 304.537,331.103 304.356,331.717 304.221 C 332.332 304.087,332.896 303.757,332.971 303.488 C 333.047 303.220,333.316 302.237,333.569 301.305 C 334.022 299.636,334.053 299.612,335.515 299.824 C 337.594 300.125,338.088 300.334,337.805 300.793 C 337.413 301.427,338.896 300.774,339.900 299.871 C 340.395 299.425,340.800 298.887,340.800 298.674 C 340.800 298.462,341.115 298.033,341.500 297.722 C 342.139 297.205,342.126 297.191,341.350 297.565 C 340.882 297.790,339.943 297.904,339.261 297.818 C 336.125 297.421,336.253 292.800,339.400 292.800 C 341.012 292.800,341.599 292.168,341.606 290.420 C 341.609 289.639,341.744 288.803,341.906 288.563 C 342.317 287.952,345.737 287.854,345.361 288.464 C 345.184 288.750,345.253 288.814,345.545 288.634 C 345.841 288.451,345.925 287.806,345.773 286.872 C 344.813 280.980,345.154 279.812,347.731 280.168 C 348.649 280.296,349.603 280.674,349.851 281.009 C 350.352 281.687,351.888 281.322,352.658 280.342 C 353.317 279.503,354.047 277.124,353.552 277.430 C 352.384 278.151,350.055 277.839,349.629 276.903 C 348.313 274.015,349.444 271.825,352.113 272.091 C 353.753 272.255,354.095 272.144,355.059 271.138 L 356.150 270.000 355.124 270.000 C 353.592 270.000,353.099 269.093,353.110 266.299 C 353.126 262.395,353.588 261.600,355.838 261.600 L 357.696 261.600 357.417 257.100 C 357.054 251.239,357.378 250.257,359.606 250.469 C 360.526 250.557,361.203 250.447,361.206 250.211 C 361.209 249.985,361.372 250.053,361.568 250.362 C 361.978 251.009,361.821 248.174,361.194 243.600 C 360.968 241.950,360.857 240.060,360.946 239.400 C 361.036 238.740,361.129 237.829,361.154 237.376 C 361.228 236.055,362.154 235.124,363.558 234.960 C 364.276 234.877,365.015 234.714,365.201 234.599 C 365.387 234.484,365.622 234.707,365.723 235.095 C 365.844 235.559,365.923 235.444,365.954 234.758 C 365.990 233.942,366.282 233.635,367.300 233.344 C 368.680 232.948,369.782 231.310,369.489 230.089 C 369.343 229.481,369.286 229.494,369.002 230.200 C 368.545 231.338,367.155 232.800,366.530 232.800 C 365.715 232.800,365.888 232.354,367.242 230.956 C 368.247 229.920,368.342 229.687,367.742 229.737 C 367.334 229.772,366.800 230.056,366.555 230.369 C 365.024 232.326,364.008 181.057,365.412 172.700 C 366.377 166.958,366.597 167.362,362.339 167.060 C 360.325 166.917,357.490 166.844,356.039 166.897 C 354.587 166.951,318.480 167.088,275.800 167.201 M277.000 256.800 L 275.850 258.000 277.042 258.000 C 278.103 258.000,278.232 257.868,278.218 256.800 C 278.209 256.140,278.190 255.600,278.176 255.600 C 278.161 255.600,277.632 256.140,277.000 256.800 " stroke="none" fill="#1c74d4" fill-rule="evenodd"></path><path id="path2" d="M168.027 32.171 C 166.624 33.665,167.229 33.976,168.666 32.500 C 169.362 31.785,169.708 31.200,169.435 31.200 C 169.163 31.200,168.529 31.637,168.027 32.171 M230.000 32.481 C 230.000 33.230,231.003 34.132,231.610 33.930 C 231.851 33.850,231.587 33.351,231.024 32.822 C 230.245 32.091,230.000 32.009,230.000 32.481 M278.000 48.481 C 278.000 49.230,279.003 50.132,279.610 49.930 C 279.851 49.850,279.587 49.351,279.024 48.822 C 278.245 48.091,278.000 48.009,278.000 48.481 M234.646 110.800 C 234.949 112.075,235.925 113.051,237.200 113.354 C 237.924 113.526,237.841 113.427,236.901 112.995 C 236.155 112.652,235.348 111.845,235.005 111.099 C 234.573 110.159,234.474 110.076,234.646 110.800 M242.825 114.518 C 242.792 115.450,244.556 117.209,245.482 117.168 C 246.040 117.144,246.066 117.088,245.600 116.916 C 244.681 116.578,243.542 115.489,243.178 114.600 C 242.890 113.896,242.848 113.886,242.825 114.518 M48.640 121.153 L 47.480 122.369 48.631 122.160 C 50.060 121.901,50.095 121.865,49.932 120.803 C 49.806 119.974,49.751 119.989,48.640 121.153 M42.480 130.480 C 41.846 131.114,41.874 131.466,42.580 131.737 C 42.988 131.893,43.086 131.767,42.910 131.310 C 42.726 130.830,42.830 130.726,43.310 130.910 C 43.767 131.086,43.893 130.988,43.737 130.580 C 43.466 129.874,43.114 129.846,42.480 130.480 M38.880 138.880 C 38.232 139.528,38.270 140.800,38.938 140.800 C 39.578 140.800,40.800 139.533,40.800 138.869 C 40.800 138.257,39.495 138.265,38.880 138.880 M39.974 139.831 C 39.718 140.139,39.341 140.287,39.135 140.160 C 38.914 140.023,38.951 139.700,39.226 139.369 C 39.482 139.061,39.859 138.913,40.065 139.040 C 40.286 139.177,40.249 139.500,39.974 139.831 M38.006 142.327 C 38.011 142.865,38.082 142.890,38.361 142.449 C 38.553 142.146,38.874 141.999,39.074 142.122 C 39.274 142.246,39.665 142.207,39.943 142.035 C 40.257 141.841,39.985 141.710,39.224 141.688 C 38.327 141.663,38.002 141.834,38.006 142.327 M35.029 151.029 C 34.318 151.739,34.180 153.200,34.824 153.200 C 35.057 153.200,35.129 153.009,34.984 152.775 C 34.629 152.200,36.017 150.721,36.675 150.973 C 36.964 151.084,37.200 151.001,37.200 150.787 C 37.200 150.173,35.720 150.337,35.029 151.029 M355.700 162.294 C 356.745 162.376,358.455 162.376,359.500 162.294 C 360.545 162.212,359.690 162.144,357.600 162.144 C 355.510 162.144,354.655 162.212,355.700 162.294 M32.964 168.843 C 32.544 169.310,31.795 169.847,31.300 170.036 C 30.399 170.381,30.047 171.200,30.800 171.200 C 31.020 171.200,31.200 171.009,31.200 170.776 C 31.200 170.543,31.368 170.456,31.572 170.583 C 31.777 170.709,32.053 170.638,32.185 170.424 C 32.458 169.982,33.655 170.326,34.089 170.971 C 34.247 171.207,34.267 170.680,34.132 169.800 C 33.824 167.793,33.874 167.834,32.964 168.843 M32.495 170.629 C 32.644 170.777,32.369 171.235,31.883 171.645 C 31.009 172.384,31.013 172.385,32.300 171.766 C 33.802 171.044,33.838 170.977,32.912 170.622 C 32.534 170.476,32.346 170.480,32.495 170.629 M109.600 171.600 C 109.600 172.040,109.401 172.400,109.157 172.400 C 108.901 172.400,108.826 172.106,108.981 171.700 C 109.210 171.098,109.174 171.081,108.724 171.582 C 108.436 171.902,107.930 172.397,107.600 172.683 C 107.077 173.136,107.089 173.171,107.700 172.958 C 108.085 172.824,108.400 172.901,108.400 173.129 C 108.400 173.358,107.995 173.622,107.500 173.718 C 106.708 173.870,106.729 173.898,107.671 173.946 C 108.988 174.012,110.000 173.067,110.000 171.771 C 110.000 171.237,109.910 170.800,109.800 170.800 C 109.690 170.800,109.600 171.160,109.600 171.600 M30.032 172.900 C 30.049 173.615,30.154 173.974,30.266 173.698 C 30.377 173.421,30.678 173.321,30.934 173.474 C 31.202 173.635,31.173 173.474,30.866 173.094 C 30.572 172.732,30.447 172.247,30.589 172.018 C 30.731 171.788,30.657 171.600,30.424 171.600 C 30.191 171.600,30.014 172.185,30.032 172.900 M30.093 185.200 C 30.093 185.970,30.175 186.285,30.276 185.900 C 30.376 185.515,30.376 184.885,30.276 184.500 C 30.175 184.115,30.093 184.430,30.093 185.200 M105.032 188.348 C 104.909 188.547,105.077 188.932,105.404 189.204 C 105.889 189.606,106.000 189.581,106.000 189.073 C 106.000 188.326,105.348 187.838,105.032 188.348 M105.594 192.100 C 105.589 192.828,105.514 192.885,105.200 192.400 C 104.987 192.070,104.809 191.989,104.806 192.220 C 104.803 192.451,105.011 192.851,105.269 193.109 C 105.619 193.459,105.625 193.827,105.293 194.556 C 104.938 195.335,104.964 195.578,105.424 195.754 C 105.886 195.931,106.000 195.501,106.000 193.587 C 106.000 192.274,105.910 191.200,105.800 191.200 C 105.690 191.200,105.597 191.605,105.594 192.100 M101.800 200.000 C 101.800 202.186,101.930 203.024,102.230 202.776 C 102.489 202.560,102.869 202.613,103.188 202.910 C 103.562 203.256,103.639 203.261,103.452 202.928 C 103.306 202.668,103.370 202.342,103.593 202.204 C 103.817 202.066,104.000 201.074,104.000 200.000 C 104.000 198.926,103.817 197.934,103.593 197.796 C 103.370 197.658,103.306 197.332,103.452 197.072 C 103.639 196.739,103.562 196.744,103.188 197.090 C 102.869 197.387,102.489 197.440,102.230 197.224 C 101.930 196.976,101.800 197.814,101.800 200.000 M104.379 197.000 C 104.092 199.727,104.402 203.018,104.957 203.129 C 105.505 203.240,105.600 202.783,105.600 200.029 C 105.600 197.425,105.484 196.800,105.000 196.800 C 104.670 196.800,104.391 196.890,104.379 197.000 M103.524 200.244 C 103.456 201.320,103.220 202.200,103.000 202.200 C 102.545 202.200,102.227 199.029,102.588 198.087 C 103.051 196.880,103.650 198.261,103.524 200.244 M102.920 200.000 C 102.920 201.210,102.995 201.705,103.087 201.100 C 103.178 200.495,103.178 199.505,103.087 198.900 C 102.995 198.295,102.920 198.790,102.920 200.000 M105.321 204.258 C 104.962 204.404,104.951 204.695,105.279 205.415 C 105.611 206.143,105.592 206.527,105.202 206.998 C 104.918 207.340,104.802 207.735,104.943 207.876 C 105.084 208.018,105.218 207.878,105.240 207.567 C 105.262 207.255,105.424 207.450,105.600 208.000 C 105.838 208.743,105.930 208.358,105.960 206.500 C 105.982 205.125,105.955 204.014,105.900 204.032 C 105.845 204.049,105.584 204.151,105.321 204.258 M105.238 210.955 C 104.910 211.349,104.893 211.611,105.183 211.790 C 105.416 211.933,105.717 211.762,105.852 211.408 C 106.190 210.528,105.819 210.254,105.238 210.955 M30.093 214.800 C 30.093 215.570,30.175 215.885,30.276 215.500 C 30.376 215.115,30.376 214.485,30.276 214.100 C 30.175 213.715,30.093 214.030,30.093 214.800 M30.046 227.100 C 30.012 228.052,30.174 228.400,30.649 228.400 C 31.118 228.400,31.185 228.261,30.892 227.900 C 30.669 227.625,30.398 227.040,30.289 226.600 C 30.160 226.075,30.077 226.247,30.046 227.100 M107.511 226.284 C 108.091 226.395,108.381 226.702,108.311 227.129 C 108.239 227.566,108.434 227.761,108.871 227.689 C 109.298 227.619,109.605 227.909,109.716 228.489 C 109.873 229.304,109.897 229.287,109.946 228.329 C 110.015 226.959,109.041 225.985,107.671 226.054 C 106.713 226.103,106.696 226.127,107.511 226.284 M30.400 229.213 C 30.400 229.439,30.715 229.736,31.100 229.871 C 31.485 230.007,32.295 230.575,32.900 231.133 L 34.000 232.150 34.000 230.924 C 34.000 229.537,33.069 228.440,32.574 229.242 C 32.373 229.568,32.446 229.619,32.800 229.400 C 33.154 229.181,33.227 229.232,33.026 229.558 C 32.817 229.895,32.579 229.915,32.228 229.623 C 31.952 229.394,31.608 229.325,31.463 229.470 C 31.318 229.615,31.200 229.523,31.200 229.267 C 31.200 229.010,31.020 228.800,30.800 228.800 C 30.580 228.800,30.400 228.986,30.400 229.213 M105.308 230.319 C 104.279 230.474,102.800 232.180,102.800 233.211 C 102.800 233.996,102.031 234.400,100.536 234.400 C 99.894 234.400,98.929 235.008,97.834 236.103 C 96.897 237.040,95.114 238.304,93.870 238.913 C 92.292 239.686,91.537 240.312,91.367 240.990 C 91.186 241.712,90.634 242.124,89.217 242.594 C 87.593 243.134,87.218 243.463,86.687 244.814 C 86.207 246.037,85.849 246.400,85.121 246.400 C 83.763 246.400,82.503 247.421,82.209 248.760 C 82.002 249.702,81.684 249.970,80.519 250.189 C 78.694 250.531,77.374 251.349,75.546 253.271 C 74.747 254.112,73.743 254.800,73.316 254.800 C 72.409 254.800,70.942 256.262,70.740 257.366 C 70.642 257.902,70.057 258.264,68.800 258.566 C 67.250 258.940,66.938 259.192,66.553 260.382 C 66.180 261.538,65.799 261.865,64.228 262.382 C 63.112 262.749,61.662 263.684,60.657 264.683 C 59.727 265.609,58.253 266.599,57.383 266.883 C 56.189 267.273,55.620 267.768,55.067 268.900 C 54.558 269.942,54.069 270.402,53.467 270.406 C 51.024 270.423,50.112 271.839,49.949 275.875 C 49.862 278.019,49.858 278.026,48.678 277.840 L 47.495 277.653 48.727 278.927 C 49.831 280.066,49.973 280.495,50.080 283.000 L 50.200 285.800 52.061 285.920 L 53.922 286.041 54.061 289.587 C 54.220 293.645,54.193 293.595,56.347 293.884 C 57.946 294.098,57.961 294.117,58.080 295.950 L 58.200 297.800 60.100 297.922 C 61.998 298.044,62.000 298.045,62.019 299.522 C 62.087 304.843,62.306 305.419,64.391 305.752 C 65.941 306.000,66.000 306.065,66.000 307.525 C 66.000 309.431,66.565 310.000,68.458 310.000 L 69.956 310.000 70.078 311.900 L 70.200 313.800 72.100 313.922 C 73.934 314.040,74.002 314.089,74.046 315.322 C 74.145 318.062,73.938 317.855,76.678 317.954 C 77.911 317.998,77.960 318.066,78.078 319.900 L 78.200 321.800 80.100 321.922 C 81.934 322.040,82.002 322.089,82.046 323.322 C 82.145 326.062,81.938 325.855,84.678 325.954 C 85.911 325.998,85.960 326.066,86.078 327.900 L 86.200 329.800 88.100 329.922 L 90.000 330.044 90.000 331.542 C 90.000 333.428,90.569 334.000,92.445 334.000 C 93.865 334.000,93.941 334.069,94.200 335.598 C 94.561 337.734,95.041 337.917,100.478 337.982 C 101.955 338.000,101.956 338.002,102.078 339.900 L 102.200 341.800 104.100 341.922 C 105.967 342.042,106.000 342.067,106.000 343.393 C 106.000 345.565,106.772 346.000,110.629 346.000 L 114.000 346.000 114.000 347.520 C 114.000 349.737,114.475 350.000,118.480 350.000 L 122.000 350.000 122.047 351.100 C 122.073 351.705,122.070 352.345,122.040 352.521 C 121.887 353.424,123.234 353.928,125.835 353.940 C 127.356 353.947,128.905 353.964,129.278 353.977 C 129.799 353.995,129.984 354.440,130.078 355.900 L 130.200 357.800 134.051 357.914 L 137.902 358.028 138.158 359.626 C 138.434 361.351,139.535 362.108,141.583 361.979 C 142.142 361.944,144.254 361.934,146.276 361.958 L 149.953 362.000 150.289 363.698 C 150.713 365.844,150.907 365.890,159.667 365.953 C 167.132 366.006,167.789 365.901,167.174 364.752 C 166.948 364.329,166.863 363.822,166.984 363.625 C 168.510 361.157,161.140 359.106,156.200 360.623 C 152.863 361.648,151.200 360.980,151.200 358.616 C 151.200 356.632,147.264 355.576,143.716 356.607 C 140.815 357.451,139.646 356.754,139.935 354.353 C 140.056 353.346,137.982 352.444,135.000 352.206 C 130.783 351.868,130.400 351.734,130.400 350.589 C 130.400 349.503,127.563 348.400,124.771 348.400 C 123.416 348.400,123.232 348.263,122.654 346.818 C 122.114 345.468,121.771 345.172,120.311 344.796 C 116.459 343.803,115.936 343.536,115.522 342.349 C 115.010 340.879,114.117 340.400,111.888 340.400 C 110.062 340.400,108.800 339.555,108.800 338.330 C 108.800 337.486,107.700 336.587,105.685 335.784 C 104.619 335.359,103.748 334.672,103.384 333.969 C 102.872 332.979,100.949 332.012,99.471 332.002 C 99.049 331.999,98.003 330.957,97.991 330.529 C 97.980 330.094,95.235 328.180,94.129 327.836 C 93.650 327.687,92.886 326.934,92.431 326.163 C 91.968 325.378,91.008 324.512,90.250 324.195 C 89.483 323.874,88.531 323.010,88.052 322.198 C 87.588 321.411,86.680 320.464,86.035 320.094 C 85.391 319.724,84.585 318.838,84.244 318.124 C 83.904 317.410,82.905 316.371,82.024 315.815 C 81.143 315.259,80.157 314.290,79.832 313.662 C 79.507 313.034,78.659 312.238,77.946 311.893 C 77.234 311.548,76.370 310.672,76.026 309.947 C 75.681 309.222,74.780 308.212,74.023 307.702 C 73.247 307.180,72.182 305.865,71.583 304.688 C 70.997 303.540,70.108 302.391,69.605 302.136 C 68.477 301.563,68.014 300.864,68.006 299.719 C 67.996 298.302,67.245 297.041,65.979 296.314 C 65.330 295.942,64.584 295.134,64.319 294.519 C 63.486 292.579,62.371 291.200,61.635 291.200 C 60.437 291.200,59.690 289.934,59.658 287.846 C 59.625 285.763,59.005 284.741,57.257 283.886 C 54.189 282.386,55.358 274.143,58.800 273.005 C 59.753 272.690,60.456 272.072,61.000 271.072 C 61.597 269.975,62.136 269.538,63.122 269.352 C 63.972 269.192,64.828 268.610,65.522 267.721 C 66.115 266.962,67.629 265.814,68.888 265.170 C 70.146 264.527,71.568 263.469,72.049 262.819 C 72.529 262.170,73.622 261.358,74.476 261.016 C 75.457 260.624,76.339 259.872,76.867 258.977 C 77.420 258.039,78.094 257.481,78.859 257.328 C 79.938 257.112,82.000 255.180,82.000 254.385 C 82.000 254.191,82.720 253.816,83.600 253.553 C 84.479 253.289,86.054 252.279,87.100 251.308 C 88.145 250.337,89.671 249.194,90.492 248.767 C 91.312 248.341,92.247 247.482,92.570 246.859 C 92.955 246.114,93.794 245.482,95.019 245.014 C 96.448 244.468,97.013 243.988,97.446 242.951 C 97.797 242.111,98.289 241.600,98.746 241.600 C 99.151 241.600,100.093 241.152,100.841 240.604 C 104.924 237.614,105.749 237.200,107.629 237.200 C 109.589 237.200,110.374 236.677,110.184 235.500 C 110.052 234.682,110.043 234.684,111.368 235.188 C 111.929 235.401,112.661 236.166,112.996 236.888 L 113.604 238.200 113.370 237.002 C 113.061 235.424,112.588 234.905,111.172 234.594 C 110.092 234.357,110.000 234.198,110.000 232.568 C 110.000 231.424,109.824 230.798,109.500 230.794 C 109.137 230.789,109.151 230.692,109.550 230.439 C 110.088 230.098,107.295 230.019,105.308 230.319 M110.530 235.863 C 110.675 236.008,110.606 236.352,110.377 236.628 C 110.085 236.979,110.105 237.217,110.442 237.426 C 110.768 237.627,110.819 237.554,110.600 237.200 C 110.372 236.831,110.431 236.772,110.800 237.000 C 111.176 237.233,111.231 237.166,110.993 236.762 C 110.811 236.453,111.053 236.543,111.531 236.962 C 112.009 237.381,112.400 237.529,112.400 237.291 C 112.400 236.728,111.269 235.600,110.705 235.600 C 110.464 235.600,110.385 235.718,110.530 235.863 M111.022 237.511 C 110.863 237.670,110.523 237.800,110.267 237.800 C 107.715 237.800,108.241 245.338,110.800 245.440 C 111.350 245.461,111.980 245.528,112.200 245.587 C 112.420 245.646,112.735 245.673,112.900 245.647 C 113.338 245.578,113.268 246.309,112.821 246.467 C 110.977 247.116,112.884 252.133,115.043 252.312 C 116.622 252.443,117.185 253.465,116.962 255.800 C 116.746 258.064,116.926 258.448,118.568 259.238 C 119.405 259.641,119.859 260.254,120.168 261.400 C 120.525 262.723,120.895 263.137,122.302 263.790 C 123.238 264.225,124.114 264.945,124.249 265.390 C 124.586 266.501,125.623 267.624,126.689 268.032 C 127.177 268.219,127.838 268.996,128.157 269.759 C 128.478 270.528,129.265 271.420,129.920 271.759 C 130.571 272.095,131.485 273.016,131.950 273.805 C 132.445 274.644,133.382 275.484,134.209 275.830 C 135.108 276.205,135.857 276.912,136.267 277.771 C 136.707 278.695,137.403 279.316,138.467 279.733 C 139.583 280.172,140.144 280.694,140.453 281.581 C 140.998 283.143,141.905 283.630,143.722 283.335 C 146.109 282.948,147.128 283.409,147.428 285.010 C 147.769 286.825,149.261 288.000,151.225 288.000 C 152.752 288.000,154.000 288.801,154.000 289.779 C 154.000 290.816,157.701 292.017,159.439 291.545 C 161.257 291.051,162.492 290.085,162.122 289.447 C 161.979 289.201,162.216 289.309,162.649 289.687 C 163.122 290.101,163.473 290.976,163.530 291.887 C 163.751 295.413,164.581 295.932,169.403 295.557 C 173.426 295.244,174.000 294.879,174.000 292.631 C 174.000 290.231,173.589 290.000,169.320 290.000 C 166.693 290.000,165.600 289.859,165.600 289.520 C 165.600 289.183,165.474 289.166,165.177 289.463 C 164.523 290.117,162.041 287.589,162.588 286.825 C 162.913 286.371,162.852 286.306,162.300 286.513 C 161.915 286.657,161.600 286.601,161.600 286.387 C 161.600 286.174,160.649 286.000,159.488 286.000 C 157.521 286.000,157.345 285.920,156.935 284.832 C 156.395 283.404,153.714 282.000,151.525 282.000 C 150.165 282.000,150.000 281.892,150.000 281.000 C 150.000 280.450,149.840 280.000,149.644 280.000 C 149.449 280.000,149.314 279.685,149.344 279.300 C 149.379 278.861,149.139 278.621,148.700 278.656 C 148.315 278.686,148.000 278.551,148.000 278.356 C 148.000 278.161,147.055 278.020,145.900 278.043 C 141.884 278.124,142.057 278.208,141.922 276.100 L 141.800 274.200 139.921 274.079 L 138.042 273.958 137.921 272.079 L 137.800 270.200 135.900 270.078 L 134.000 269.956 134.000 268.458 C 134.000 266.569,133.431 266.000,131.542 266.000 L 130.044 266.000 129.922 264.100 L 129.800 262.200 127.921 262.079 L 126.042 261.958 125.921 260.079 L 125.800 258.200 123.900 258.078 C 121.781 257.942,121.874 258.145,121.963 253.900 C 121.990 252.627,121.836 251.600,121.618 251.600 C 121.402 251.600,121.341 251.299,121.482 250.931 C 121.677 250.423,121.577 250.323,121.069 250.518 C 120.701 250.659,120.400 250.601,120.400 250.387 C 120.400 250.174,119.860 250.000,119.200 250.000 C 118.043 250.000,118.000 249.935,118.000 248.187 C 118.000 246.945,117.811 246.302,117.400 246.145 C 117.070 246.018,116.800 245.695,116.800 245.427 C 116.800 244.817,115.112 243.200,114.474 243.200 C 114.162 243.200,114.000 242.394,114.000 240.843 C 114.000 238.582,113.745 238.102,112.400 237.828 C 112.290 237.806,112.000 237.660,111.756 237.505 C 111.511 237.349,111.181 237.352,111.022 237.511 M283.782 243.782 C 283.242 244.322,282.811 245.087,282.825 245.482 C 282.848 246.114,282.890 246.104,283.178 245.400 C 283.542 244.511,284.681 243.422,285.600 243.084 C 286.066 242.912,286.040 242.856,285.482 242.832 C 285.087 242.814,284.322 243.242,283.782 243.782 M115.610 245.930 C 115.003 246.132,114.000 245.230,114.000 244.481 C 114.000 244.009,114.245 244.091,115.024 244.822 C 115.587 245.351,115.851 245.850,115.610 245.930 M34.400 247.571 C 34.400 247.996,34.683 248.626,35.029 248.971 C 35.720 249.663,37.200 249.827,37.200 249.213 C 37.200 248.999,36.964 248.916,36.675 249.027 C 36.017 249.279,34.629 247.800,34.984 247.225 C 35.129 246.991,35.057 246.800,34.824 246.800 C 34.591 246.800,34.400 247.147,34.400 247.571 M38.006 257.673 C 38.002 258.166,38.327 258.337,39.224 258.312 C 39.985 258.290,40.257 258.159,39.943 257.965 C 39.665 257.793,39.274 257.754,39.074 257.878 C 38.874 258.001,38.553 257.854,38.361 257.551 C 38.082 257.110,38.011 257.135,38.006 257.673 M38.400 259.920 C 38.400 260.842,39.158 261.600,40.080 261.600 C 41.009 261.600,41.003 260.708,40.069 259.862 C 39.111 258.996,38.400 259.020,38.400 259.920 M40.160 260.865 C 40.023 261.086,39.700 261.049,39.369 260.774 C 39.061 260.518,38.913 260.141,39.040 259.935 C 39.177 259.714,39.500 259.751,39.831 260.026 C 40.139 260.282,40.287 260.659,40.160 260.865 M42.000 268.587 C 42.000 269.171,42.829 270.000,43.413 270.000 C 43.663 270.000,43.867 269.747,43.867 269.438 C 43.867 269.102,43.625 268.969,43.264 269.108 C 42.846 269.268,42.732 269.154,42.892 268.736 C 43.031 268.375,42.898 268.133,42.562 268.133 C 42.253 268.133,42.000 268.337,42.000 268.587 M256.830 276.962 C 256.004 277.847,255.520 278.000,253.559 278.000 C 250.859 278.000,250.000 278.623,250.000 280.579 C 250.000 281.885,249.974 281.903,247.900 282.078 C 245.116 282.312,243.521 283.126,242.847 284.656 C 242.338 285.812,242.115 285.925,240.047 286.079 C 237.120 286.298,235.535 287.094,234.828 288.700 L 234.256 290.000 230.608 290.000 C 226.417 290.000,226.000 290.238,226.000 292.631 C 226.000 295.006,226.168 295.093,232.099 295.797 C 235.155 296.159,236.829 295.042,237.030 292.504 C 237.173 290.706,237.092 290.739,239.591 291.471 C 242.576 292.346,246.000 291.124,246.000 289.185 C 246.000 288.414,247.091 288.014,249.211 288.005 C 250.930 287.999,252.190 287.170,253.058 285.476 C 253.878 283.875,254.277 283.614,255.913 283.606 C 259.559 283.589,260.748 282.014,259.029 279.481 C 258.495 278.694,258.000 277.572,257.929 276.987 L 257.800 275.925 256.830 276.962 M163.200 287.138 C 163.200 287.669,164.775 288.958,165.067 288.667 C 165.211 288.523,165.002 288.044,164.602 287.602 C 163.848 286.769,163.200 286.554,163.200 287.138 M163.832 289.902 C 163.635 290.099,162.000 288.518,162.000 288.130 C 162.000 287.982,162.449 288.283,162.998 288.799 C 163.548 289.314,163.923 289.811,163.832 289.902 M174.634 294.323 C 174.857 294.476,175.031 295.399,175.020 296.375 C 174.978 300.145,180.982 300.960,194.200 298.980 C 199.436 298.195,201.966 298.100,204.200 298.602 C 207.733 299.398,216.921 300.142,219.841 299.869 C 223.835 299.496,224.696 298.872,224.862 296.234 L 225.000 294.050 199.614 294.049 C 185.652 294.048,174.411 294.171,174.634 294.323 M308.365 324.892 C 308.016 325.171,307.520 325.796,307.261 326.281 C 307.003 326.765,305.849 327.631,304.696 328.204 C 303.543 328.776,302.024 329.865,301.320 330.623 C 300.544 331.459,299.661 332.000,299.075 332.000 C 298.153 332.000,296.000 333.722,296.000 334.460 C 296.000 334.653,295.036 335.267,293.857 335.825 C 292.501 336.467,291.529 337.237,291.211 337.920 C 290.934 338.514,290.587 339.248,290.441 339.551 C 290.272 339.901,289.330 340.146,287.861 340.224 C 285.282 340.360,284.710 340.685,283.992 342.418 C 283.721 343.074,283.117 343.694,282.649 343.795 C 277.891 344.833,277.451 345.014,276.797 346.200 C 276.104 347.459,275.688 347.649,271.802 348.485 C 269.869 348.900,269.308 349.203,268.905 350.049 C 268.145 351.644,267.574 351.944,265.108 352.044 C 261.735 352.180,260.533 352.820,260.011 354.758 C 259.439 356.885,258.742 357.229,256.448 356.517 C 252.488 355.290,248.400 356.560,248.400 359.018 C 248.400 361.060,247.180 361.524,244.089 360.657 C 237.956 358.936,232.800 360.385,232.800 363.829 C 232.800 364.818,232.590 365.618,232.300 365.735 C 231.569 366.030,246.391 365.951,247.757 365.653 C 248.993 365.383,249.415 364.851,249.784 363.100 L 250.015 362.000 254.708 361.960 C 260.922 361.907,261.312 361.781,261.757 359.682 L 262.114 358.000 265.577 358.000 C 269.516 358.000,270.000 357.730,270.000 355.534 L 270.000 354.029 273.895 353.914 C 277.429 353.811,277.804 353.726,277.934 353.000 C 278.275 351.100,279.983 350.000,282.595 350.000 C 285.437 350.000,286.000 349.597,286.000 347.560 L 286.000 346.080 289.567 345.940 C 293.647 345.780,293.595 345.807,293.884 343.653 C 294.098 342.054,294.117 342.039,295.950 341.920 L 297.800 341.800 297.922 339.900 C 298.044 338.002,298.045 338.000,299.522 337.981 C 304.843 337.913,305.419 337.694,305.752 335.609 C 306.000 334.059,306.065 334.000,307.525 334.000 C 309.431 334.000,310.000 333.435,310.000 331.542 L 310.000 330.044 311.900 329.922 L 313.800 329.800 313.918 327.773 C 314.026 325.928,313.944 325.703,313.005 325.275 C 311.340 324.516,309.069 324.329,308.365 324.892 M175.250 364.690 C 170.398 365.380,170.075 365.567,170.194 367.612 C 170.338 370.079,169.190 369.987,200.071 369.994 C 231.860 370.001,230.000 370.163,230.000 367.386 C 230.000 365.822,229.599 365.531,226.400 364.776 C 223.337 364.053,180.241 363.981,175.250 364.690 " stroke="none" fill="#80b43a" fill-rule="evenodd"></path><path id="path3" d="M198.498 162.462 C 197.505 163.455,197.851 167.724,198.903 167.460 C 199.400 167.335,237.178 167.209,282.853 167.180 L 365.900 167.127 365.935 165.364 C 365.955 164.394,365.803 163.600,365.598 163.600 C 365.393 163.600,365.341 163.299,365.482 162.931 C 365.677 162.423,365.577 162.323,365.069 162.518 C 364.701 162.659,364.400 162.618,364.400 162.427 C 364.400 161.831,199.094 161.866,198.498 162.462 M365.477 172.293 C 364.015 181.763,364.955 232.414,366.555 230.369 C 366.800 230.056,367.334 229.772,367.742 229.737 C 368.342 229.687,368.247 229.920,367.242 230.956 C 365.888 232.354,365.715 232.800,366.530 232.800 C 367.158 232.800,368.335 231.500,369.312 229.727 C 370.108 228.283,370.386 171.600,369.598 171.600 C 369.393 171.600,369.328 171.332,369.454 171.003 C 369.593 170.642,369.390 170.303,368.942 170.145 C 368.534 170.001,367.737 169.456,367.171 168.934 L 366.141 167.986 365.477 172.293 M198.000 234.820 C 198.000 236.041,198.216 237.256,198.480 237.520 C 198.847 237.887,209.186 238.000,242.580 237.999 L 286.200 237.998 286.066 240.599 C 285.977 242.330,285.766 243.200,285.436 243.200 C 284.840 243.200,283.200 244.874,283.200 245.483 C 283.200 245.720,282.930 246.018,282.600 246.145 C 282.181 246.306,282.000 246.960,282.000 248.318 C 282.000 250.250,281.993 250.260,280.800 250.085 C 280.097 249.982,279.600 250.089,279.600 250.342 C 279.600 250.582,279.302 250.661,278.931 250.518 C 278.423 250.323,278.323 250.423,278.518 250.931 C 278.659 251.299,278.601 251.600,278.388 251.600 C 278.160 251.600,278.050 252.919,278.122 254.800 L 278.244 258.000 276.822 258.061 C 276.040 258.094,275.130 258.139,274.800 258.161 C 274.375 258.189,274.164 258.754,274.078 260.100 C 273.960 261.934,273.911 262.002,272.678 262.046 C 270.194 262.136,270.217 262.118,270.086 263.987 C 269.934 266.138,270.049 266.007,268.252 266.075 C 266.857 266.127,265.901 266.723,266.033 267.458 C 266.375 269.362,265.985 270.000,264.480 270.000 C 262.569 270.000,262.000 270.564,262.000 272.458 L 262.000 273.956 260.105 274.078 L 258.211 274.200 258.078 276.043 C 257.975 277.487,258.166 278.222,258.963 279.443 C 260.474 281.756,260.981 282.176,262.880 282.683 C 263.915 282.960,265.328 283.815,266.404 284.814 C 267.392 285.732,268.953 287.004,269.873 287.642 C 270.794 288.280,271.647 289.118,271.770 289.505 C 271.893 289.892,272.904 290.805,274.018 291.534 C 275.131 292.263,276.207 293.292,276.408 293.820 C 276.609 294.349,277.442 295.100,278.259 295.490 C 279.076 295.881,280.035 296.740,280.390 297.400 C 280.756 298.080,281.787 298.964,282.769 299.441 C 283.874 299.976,284.682 300.709,284.999 301.461 C 285.361 302.322,285.932 302.773,287.112 303.126 C 288.169 303.443,288.998 304.037,289.510 304.845 C 289.940 305.524,291.038 306.414,291.951 306.822 L 293.610 307.565 292.344 305.990 C 291.648 305.124,290.744 304.309,290.335 304.180 C 289.927 304.050,289.024 303.236,288.329 302.372 C 287.635 301.507,286.487 300.459,285.780 300.041 C 285.073 299.624,284.166 298.727,283.765 298.048 C 283.363 297.369,282.424 296.523,281.676 296.168 C 280.929 295.813,279.661 294.949,278.859 294.248 C 278.056 293.547,276.680 292.452,275.800 291.815 C 274.920 291.179,273.436 290.015,272.502 289.229 C 271.568 288.443,269.720 286.900,268.395 285.800 C 264.018 282.167,264.131 282.315,263.827 279.878 C 263.455 276.896,263.709 276.253,265.596 275.402 C 266.750 274.881,267.293 274.329,267.618 273.345 C 267.906 272.474,268.390 271.917,268.993 271.766 C 270.083 271.493,271.400 270.156,271.763 268.957 C 271.911 268.467,272.673 267.857,273.582 267.500 C 274.897 266.983,275.217 266.622,275.592 265.229 C 275.962 263.854,276.242 263.532,277.233 263.333 C 278.679 263.044,279.200 262.175,279.200 260.050 C 279.200 258.490,279.239 258.445,280.688 258.324 L 282.175 258.200 282.842 255.252 C 283.504 252.328,283.977 251.618,285.271 251.606 C 287.023 251.590,287.696 249.229,286.720 246.529 C 286.123 244.877,286.546 244.362,288.615 244.224 C 290.716 244.083,291.421 242.720,290.826 239.948 C 290.329 237.628,290.545 237.058,292.610 235.245 L 294.050 233.980 292.654 233.397 C 291.462 232.899,284.417 232.797,244.628 232.707 L 198.000 232.600 198.000 234.820 M365.154 234.579 C 365.033 234.701,364.349 234.868,363.635 234.951 C 360.889 235.271,360.396 237.895,361.513 246.241 C 361.989 249.798,361.599 250.659,359.602 250.469 C 357.379 250.257,357.054 251.241,357.417 257.100 L 357.696 261.600 355.838 261.600 C 354.182 261.600,353.933 261.720,353.550 262.700 C 352.968 264.190,352.986 268.661,353.578 269.373 C 354.532 270.522,358.197 269.828,357.967 268.542 C 357.933 268.354,357.927 266.831,357.953 265.157 L 358.000 262.114 359.672 261.757 C 361.786 261.306,362.006 260.596,361.888 254.617 C 361.793 249.848,361.984 249.277,363.593 249.514 C 364.903 249.706,365.761 248.756,365.503 247.402 C 365.397 246.851,365.466 246.400,365.655 246.400 C 365.845 246.400,365.987 244.015,365.972 241.100 C 365.946 236.158,365.682 234.052,365.154 234.579 M114.000 244.481 C 114.000 245.230,115.003 246.132,115.610 245.930 C 115.851 245.850,115.587 245.351,115.024 244.822 C 114.245 244.091,114.000 244.009,114.000 244.481 M349.630 272.745 C 348.508 274.840,349.446 277.884,351.176 277.764 C 353.733 277.587,353.907 277.387,353.852 274.696 L 353.800 272.216 351.930 272.079 C 350.384 271.966,349.984 272.082,349.630 272.745 M345.631 280.742 C 345.163 281.616,345.052 284.349,345.443 285.367 C 345.755 286.182,348.631 286.226,349.429 285.429 C 350.072 284.786,350.226 280.987,349.625 280.615 C 348.441 279.884,346.050 279.960,345.631 280.742 M341.832 288.662 C 341.704 288.994,341.600 289.845,341.600 290.553 C 341.600 292.169,340.982 292.800,339.400 292.800 C 337.727 292.800,337.200 293.439,337.200 295.466 C 337.200 298.584,341.807 298.885,341.924 295.774 C 341.992 293.962,342.218 293.627,343.200 293.884 C 343.640 293.999,344.000 293.912,344.000 293.691 C 344.000 293.470,344.315 293.314,344.700 293.344 C 345.139 293.379,345.379 293.139,345.344 292.700 C 345.314 292.315,345.437 292.000,345.617 292.000 C 345.798 292.000,345.912 291.145,345.870 290.100 L 345.795 288.200 343.929 288.129 C 342.587 288.078,341.998 288.228,341.832 288.662 M333.569 301.305 C 333.316 302.237,333.047 303.220,332.971 303.488 C 332.896 303.757,332.332 304.087,331.717 304.221 C 331.103 304.356,330.373 304.537,330.097 304.622 C 329.552 304.790,328.994 305.954,328.620 307.700 C 328.449 308.498,328.140 308.802,327.492 308.806 C 326.124 308.816,325.469 309.411,325.005 311.066 C 324.643 312.357,324.348 312.645,323.007 313.021 C 321.696 313.389,321.376 313.690,321.080 314.831 C 320.688 316.345,320.213 316.785,318.962 316.794 C 317.951 316.801,316.997 317.820,316.657 319.256 C 316.085 321.669,309.449 320.968,307.327 318.271 C 306.919 317.752,305.868 316.871,304.992 316.315 C 304.116 315.759,303.040 314.899,302.600 314.405 C 302.160 313.911,300.990 312.962,300.000 312.297 C 299.010 311.631,297.419 310.347,296.464 309.443 L 294.729 307.800 295.494 309.200 C 295.921 309.981,297.010 311.018,297.957 311.545 C 298.890 312.064,299.801 312.874,299.981 313.345 C 300.352 314.314,301.317 315.194,302.844 315.955 C 303.418 316.241,304.173 317.073,304.521 317.803 C 304.869 318.534,305.570 319.258,306.077 319.412 C 307.696 319.903,308.800 321.230,308.800 322.682 C 308.800 323.421,309.025 324.092,309.300 324.174 C 309.575 324.256,310.700 324.633,311.800 325.013 C 314.256 325.860,317.098 326.083,317.495 325.460 C 317.850 324.902,317.886 324.723,317.950 323.222 C 317.997 322.109,318.104 322.037,319.900 321.922 L 321.800 321.800 321.922 319.900 C 322.044 317.994,322.540 317.624,324.521 317.960 C 325.168 318.069,325.831 316.965,325.927 315.621 C 326.048 313.912,326.040 313.920,327.758 313.920 C 329.201 313.920,330.105 313.273,329.977 312.330 C 329.715 310.398,329.979 310.000,331.520 310.000 C 333.435 310.000,334.000 309.436,334.000 307.525 C 334.000 306.065,334.059 306.000,335.609 305.752 C 337.562 305.440,337.613 305.365,337.780 302.571 C 337.923 300.172,337.923 300.172,335.515 299.824 C 334.053 299.612,334.022 299.636,333.569 301.305 M169.025 367.298 C 169.671 368.012,170.235 368.662,170.277 368.742 C 170.320 368.822,170.287 368.373,170.205 367.744 C 170.123 367.115,170.043 366.465,170.028 366.300 C 170.012 366.135,169.516 366.000,168.925 366.000 L 167.850 366.000 169.025 367.298 " stroke="none" fill="#74947c" fill-rule="evenodd"></path><path id="path4" d="M169.400 30.485 C 167.804 31.043,166.924 31.850,166.628 33.029 L 166.385 34.000 160.092 34.058 C 156.632 34.090,153.239 34.079,152.554 34.033 C 150.816 33.917,149.857 34.962,150.134 36.670 L 150.350 38.000 145.675 38.046 C 143.104 38.071,140.695 38.062,140.322 38.025 C 139.444 37.937,137.937 39.444,138.025 40.322 C 138.183 41.914,138.060 41.969,134.105 42.086 C 130.571 42.189,130.196 42.274,130.066 43.000 C 129.710 44.982,128.034 46.000,125.125 46.000 C 123.626 46.000,122.400 46.143,122.400 46.317 C 122.400 46.492,121.815 46.807,121.100 47.017 C 120.222 47.276,119.605 47.819,119.200 48.691 C 118.670 49.831,118.401 49.990,116.900 50.041 C 115.965 50.074,114.981 50.123,114.713 50.150 C 114.435 50.179,114.162 50.973,114.076 52.000 C 113.894 54.198,114.395 53.919,110.397 54.050 C 107.049 54.160,106.040 54.532,106.097 55.637 C 106.206 57.746,106.032 58.000,104.480 58.000 C 102.564 58.000,102.000 58.564,102.000 60.480 L 102.000 62.000 99.900 62.060 C 98.745 62.093,97.305 62.082,96.700 62.035 C 96.095 61.987,95.600 62.135,95.600 62.362 C 95.600 62.589,95.299 62.659,94.931 62.518 C 94.423 62.323,94.323 62.423,94.518 62.931 C 94.662 63.305,94.582 63.600,94.337 63.600 C 94.065 63.600,93.990 64.052,94.140 64.800 C 94.373 65.967,94.336 66.001,92.790 66.050 C 91.916 66.078,90.981 66.123,90.713 66.150 C 90.435 66.179,90.162 66.973,90.076 68.000 C 89.897 70.161,90.161 69.897,88.000 70.076 C 86.973 70.162,86.179 70.435,86.150 70.713 C 86.123 70.981,86.078 71.820,86.050 72.578 C 86.001 73.930,85.964 73.958,84.100 74.078 L 82.200 74.200 82.078 76.100 L 81.956 78.000 80.458 78.000 C 78.569 78.000,78.000 78.569,78.000 80.458 L 78.000 81.956 76.100 82.078 L 74.200 82.200 74.078 84.100 C 73.958 85.964,73.930 86.001,72.578 86.050 C 71.820 86.078,70.981 86.123,70.713 86.150 C 70.435 86.179,70.162 86.973,70.076 88.000 C 69.897 90.161,70.161 89.897,68.000 90.076 C 66.973 90.162,66.179 90.435,66.150 90.713 C 66.123 90.981,66.078 91.923,66.050 92.808 C 66.004 94.292,65.927 94.397,65.049 94.177 C 63.859 93.878,61.944 95.637,62.052 96.929 C 62.092 97.408,62.096 98.745,62.062 99.900 L 62.000 102.000 60.480 102.000 C 58.564 102.000,58.000 102.564,58.000 104.480 C 58.000 106.032,57.746 106.206,55.637 106.097 C 54.532 106.040,54.160 107.049,54.050 110.397 C 53.919 114.395,54.198 113.894,52.000 114.076 L 50.200 114.224 50.068 118.011 C 49.909 122.544,50.301 122.054,46.586 122.365 C 46.109 122.405,46.011 124.000,46.486 124.000 C 46.659 124.000,46.800 124.191,46.800 124.424 C 46.800 124.657,46.635 124.745,46.432 124.620 C 46.227 124.493,46.072 125.236,46.081 126.296 C 46.110 129.567,46.028 130.000,45.376 130.000 C 45.033 130.000,44.864 130.180,45.000 130.400 C 45.136 130.620,45.057 130.800,44.824 130.800 C 44.591 130.800,44.400 130.620,44.400 130.400 C 44.400 130.180,44.201 130.000,43.957 130.000 C 43.714 130.000,43.614 130.261,43.737 130.580 C 43.893 130.988,43.767 131.086,43.310 130.910 C 42.830 130.726,42.726 130.830,42.910 131.310 C 43.086 131.767,42.988 131.893,42.580 131.737 C 42.261 131.614,42.000 131.714,42.000 131.957 C 42.000 132.201,42.180 132.400,42.400 132.400 C 42.620 132.400,42.800 132.591,42.800 132.824 C 42.800 133.057,42.605 133.127,42.367 132.980 C 42.078 132.801,41.957 133.293,42.004 134.456 C 42.105 136.977,41.938 139.517,41.724 138.700 C 41.482 137.773,40.800 137.801,40.800 138.738 C 40.800 139.630,39.591 140.800,38.669 140.800 C 38.301 140.800,38.000 140.980,38.000 141.200 C 38.000 141.590,38.789 141.760,40.000 141.631 C 40.506 141.577,40.512 141.626,40.036 141.946 C 39.726 142.155,39.254 142.242,38.988 142.140 C 38.284 141.870,38.127 142.597,38.064 146.399 C 38.033 148.280,37.828 149.857,37.604 149.932 C 37.382 150.006,37.200 150.316,37.200 150.621 C 37.200 150.926,36.964 151.084,36.675 150.973 C 36.017 150.721,34.629 152.200,34.984 152.775 C 35.129 153.009,34.967 153.200,34.624 153.200 C 34.281 153.200,34.000 153.380,34.000 153.600 C 34.000 153.820,34.186 154.000,34.414 154.000 C 34.683 154.000,34.698 154.245,34.456 154.700 C 34.252 155.085,34.110 158.938,34.142 163.262 C 34.174 167.586,34.110 170.993,34.000 170.833 C 33.634 170.301,32.429 170.029,32.185 170.424 C 32.053 170.638,31.777 170.709,31.572 170.583 C 31.368 170.456,31.200 170.543,31.200 170.776 C 31.200 171.009,30.885 171.214,30.500 171.232 C 30.078 171.251,29.999 171.344,30.302 171.466 C 30.579 171.577,30.698 171.841,30.568 172.052 C 30.438 172.263,30.572 172.732,30.866 173.094 C 31.160 173.457,31.194 173.630,30.942 173.479 C 30.319 173.106,29.881 174.375,30.413 175.015 C 30.672 175.328,30.692 175.620,30.462 175.762 C 30.232 175.904,30.084 185.388,30.084 199.995 C 30.084 213.195,30.215 223.914,30.375 223.815 C 30.536 223.716,30.667 223.897,30.667 224.218 C 30.667 224.538,30.502 224.800,30.302 224.800 C 29.876 224.800,30.315 227.179,30.867 227.867 C 31.122 228.183,31.010 228.393,30.521 228.520 C 29.858 228.692,29.856 228.711,30.500 228.754 C 30.885 228.779,31.200 229.010,31.200 229.267 C 31.200 229.523,31.318 229.615,31.463 229.470 C 31.608 229.325,31.952 229.394,32.228 229.623 C 32.579 229.915,32.817 229.895,33.026 229.558 C 33.227 229.232,33.154 229.181,32.800 229.400 C 32.439 229.623,32.373 229.568,32.586 229.223 C 33.605 227.574,34.039 229.906,34.077 237.234 C 34.098 241.285,34.276 244.915,34.472 245.300 C 34.699 245.745,34.678 246.000,34.414 246.000 C 34.186 246.000,34.000 246.180,34.000 246.400 C 34.000 246.620,34.264 246.800,34.587 246.800 C 34.911 246.800,35.084 247.036,34.973 247.325 C 34.721 247.983,36.200 249.371,36.775 249.016 C 37.009 248.871,37.200 249.018,37.200 249.343 C 37.200 249.668,37.382 249.994,37.604 250.068 C 37.828 250.143,38.033 251.720,38.064 253.601 C 38.127 257.403,38.284 258.130,38.988 257.860 C 39.254 257.758,39.726 257.845,40.036 258.054 C 40.512 258.374,40.506 258.423,40.000 258.369 C 38.789 258.240,38.000 258.410,38.000 258.800 C 38.000 259.020,38.332 259.200,38.738 259.200 C 39.630 259.200,40.800 260.409,40.800 261.331 C 40.800 262.215,41.491 262.192,41.724 261.300 C 41.929 260.516,42.120 263.088,42.008 265.120 C 41.968 265.846,42.152 266.701,42.417 267.020 C 42.783 267.461,42.785 267.600,42.425 267.600 C 42.165 267.600,42.066 267.783,42.204 268.007 C 42.342 268.230,42.621 268.311,42.823 268.186 C 43.027 268.060,43.073 268.266,42.926 268.649 C 42.724 269.176,42.818 269.279,43.326 269.084 C 43.691 268.944,43.971 268.957,43.948 269.114 C 43.842 269.825,44.037 270.160,44.309 269.734 C 45.038 268.587,46.084 270.280,46.125 272.675 C 46.152 274.257,46.362 275.156,46.782 275.487 C 47.336 275.924,47.336 275.976,46.786 275.987 C 46.108 276.001,45.917 277.580,46.586 277.633 C 46.814 277.652,47.644 277.735,48.432 277.818 L 49.864 277.969 49.950 275.846 C 50.112 271.841,51.029 270.422,53.467 270.406 C 54.069 270.402,54.558 269.942,55.067 268.900 C 55.620 267.768,56.189 267.273,57.383 266.883 C 58.253 266.599,59.727 265.609,60.657 264.683 C 61.662 263.684,63.112 262.749,64.228 262.382 C 65.799 261.865,66.180 261.538,66.553 260.382 C 66.938 259.192,67.250 258.940,68.800 258.566 C 70.057 258.264,70.642 257.902,70.740 257.366 C 70.942 256.262,72.409 254.800,73.316 254.800 C 73.743 254.800,74.747 254.112,75.546 253.271 C 77.374 251.349,78.694 250.531,80.519 250.189 C 81.684 249.970,82.002 249.702,82.209 248.760 C 82.503 247.421,83.763 246.400,85.121 246.400 C 85.849 246.400,86.207 246.037,86.687 244.814 C 87.218 243.463,87.593 243.134,89.217 242.594 C 90.634 242.124,91.186 241.712,91.367 240.990 C 91.537 240.312,92.292 239.686,93.870 238.913 C 95.114 238.304,96.897 237.040,97.834 236.103 C 98.929 235.008,99.894 234.400,100.536 234.400 C 102.047 234.400,102.800 233.994,102.800 233.180 C 102.800 231.492,104.442 230.366,107.142 230.203 C 110.123 230.022,109.987 230.101,109.717 228.693 C 109.575 227.957,109.286 227.623,108.852 227.693 C 108.442 227.760,108.239 227.559,108.306 227.151 C 108.377 226.712,108.021 226.424,107.206 226.261 C 105.842 225.988,105.888 226.354,105.954 216.319 C 105.974 213.226,105.831 211.543,105.531 211.357 C 105.233 211.173,105.188 211.257,105.400 211.600 C 105.620 211.956,105.568 212.027,105.236 211.822 C 104.867 211.594,104.907 211.345,105.400 210.800 C 105.898 210.249,105.980 209.719,105.746 208.540 C 105.577 207.693,105.483 206.777,105.536 206.505 C 105.590 206.232,105.449 205.665,105.224 205.245 C 104.913 204.664,104.957 204.425,105.407 204.253 C 106.263 203.924,106.136 203.200,105.224 203.200 C 104.797 203.200,104.319 202.992,104.162 202.738 C 103.991 202.463,104.051 202.385,104.311 202.545 C 104.549 202.692,104.875 202.602,105.034 202.345 C 105.215 202.052,105.150 201.984,104.862 202.162 C 104.532 202.366,104.400 201.748,104.400 200.000 C 104.400 198.252,104.532 197.634,104.862 197.838 C 105.150 198.016,105.215 197.948,105.034 197.655 C 104.875 197.398,104.549 197.308,104.311 197.455 C 104.051 197.615,103.991 197.537,104.162 197.262 C 104.319 197.008,104.797 196.800,105.224 196.800 C 106.136 196.800,106.263 196.076,105.407 195.747 C 104.957 195.575,104.913 195.336,105.224 194.755 C 105.449 194.335,105.590 193.768,105.536 193.495 C 105.483 193.223,105.577 192.307,105.746 191.460 C 105.980 190.281,105.898 189.751,105.400 189.200 C 104.907 188.655,104.867 188.406,105.236 188.178 C 105.568 187.973,105.620 188.044,105.400 188.400 C 105.188 188.743,105.233 188.827,105.531 188.643 C 105.831 188.457,105.974 186.774,105.954 183.681 C 105.889 173.877,105.870 174.048,107.058 173.750 C 108.875 173.294,111.016 170.012,109.508 169.994 C 109.118 169.989,109.124 169.909,109.535 169.649 C 109.883 169.428,110.025 168.703,109.943 167.570 C 109.821 165.875,109.854 165.822,111.189 165.549 C 112.714 165.237,113.574 164.319,113.650 162.924 C 113.678 162.416,113.745 161.820,113.800 161.600 C 113.855 161.380,113.922 160.416,113.950 159.458 C 113.996 157.852,114.101 157.687,115.300 157.344 C 116.891 156.888,117.610 155.531,117.891 152.457 C 118.137 149.767,118.069 149.864,119.700 149.879 C 121.574 149.896,121.848 149.510,121.925 146.740 C 121.998 144.076,122.709 142.868,124.790 141.876 C 125.594 141.492,125.825 141.053,125.922 139.718 L 126.044 138.042 127.922 137.921 L 129.800 137.800 129.922 135.900 C 130.042 134.036,130.070 133.999,131.422 133.950 C 134.087 133.853,133.853 134.087,133.950 131.422 C 133.999 130.070,134.036 130.042,135.900 129.922 L 137.800 129.800 137.921 127.922 L 138.042 126.044 139.718 125.922 C 141.053 125.825,141.492 125.594,141.876 124.790 C 142.814 122.823,144.090 122.014,146.413 121.912 C 148.776 121.810,150.202 120.877,149.830 119.680 C 149.475 118.539,150.100 118.115,152.457 117.895 C 155.534 117.609,156.888 116.889,157.344 115.300 C 157.673 114.149,157.881 113.998,159.158 113.980 C 163.830 113.914,165.600 113.133,165.600 111.138 L 165.600 110.000 169.100 109.954 C 171.025 109.928,172.867 109.883,173.194 109.854 C 173.602 109.817,173.828 109.239,173.914 108.013 C 173.984 107.030,174.088 106.179,174.145 106.121 C 174.203 106.063,180.224 106.001,187.525 105.983 C 195.504 105.964,200.800 105.801,200.800 105.575 C 200.800 105.369,201.160 105.200,201.600 105.200 C 202.040 105.200,202.400 105.357,202.400 105.549 C 202.400 105.741,207.659 105.930,214.087 105.970 C 220.515 106.009,225.816 106.083,225.867 106.134 C 225.918 106.185,226.016 107.030,226.086 108.013 C 226.172 109.239,226.398 109.817,226.806 109.854 C 227.133 109.883,229.047 109.928,231.061 109.954 L 234.722 110.000 235.145 111.215 C 235.425 112.017,235.983 112.575,236.785 112.855 C 237.453 113.088,238.000 113.441,238.000 113.639 C 238.000 113.838,238.135 113.979,238.300 113.953 C 240.877 113.546,242.318 114.040,242.577 115.418 C 242.890 117.087,243.764 117.533,247.388 117.874 C 250.266 118.145,250.168 118.076,250.119 119.797 C 250.076 121.298,250.679 122.047,251.847 121.941 C 252.261 121.904,253.815 121.902,255.300 121.937 L 258.000 122.000 258.000 123.520 C 258.000 125.436,258.564 126.000,260.480 126.000 C 261.982 126.000,262.363 126.616,262.040 128.521 C 261.884 129.444,263.224 129.916,266.000 129.916 C 268.776 129.916,270.116 129.444,269.960 128.521 C 269.637 126.616,270.018 126.000,271.520 126.000 C 273.436 126.000,274.000 125.436,274.000 123.520 C 274.000 122.027,274.027 122.000,275.520 122.000 C 277.436 122.000,278.000 121.436,278.000 119.520 C 278.000 118.027,278.027 118.000,279.520 118.000 C 281.436 118.000,282.000 117.436,282.000 115.520 C 282.000 114.027,282.027 114.000,283.520 114.000 C 285.436 114.000,286.000 113.436,286.000 111.520 C 286.000 110.027,286.027 110.000,287.520 110.000 C 289.436 110.000,290.000 109.436,290.000 107.520 C 290.000 106.027,290.027 106.000,291.520 106.000 C 293.436 106.000,294.000 105.436,294.000 103.520 C 294.000 102.027,294.027 102.000,295.520 102.000 C 297.436 102.000,298.000 101.436,298.000 99.520 C 298.000 98.027,298.027 98.000,299.520 98.000 C 301.436 98.000,302.000 97.436,302.000 95.520 C 302.000 94.027,302.027 94.000,303.520 94.000 C 305.436 94.000,306.000 93.436,306.000 91.520 C 306.000 90.027,306.027 90.000,307.520 90.000 C 309.436 90.000,310.000 89.436,310.000 87.520 C 310.000 86.027,310.027 86.000,311.520 86.000 C 313.436 86.000,314.000 85.436,314.000 83.520 C 314.000 82.181,314.119 81.993,315.000 81.940 C 315.550 81.907,316.225 81.862,316.500 81.840 C 317.584 81.753,317.886 80.917,317.886 78.000 C 317.886 74.659,317.657 74.264,315.600 74.063 C 313.900 73.896,314.101 74.143,313.925 72.012 L 313.776 70.224 311.988 70.075 C 309.844 69.898,310.034 70.058,309.905 68.324 C 309.847 67.543,309.620 66.746,309.400 66.552 C 308.988 66.189,308.841 66.162,306.792 66.060 C 305.713 66.006,305.611 65.894,305.836 65.000 C 305.995 64.367,305.918 64.000,305.626 64.000 C 305.372 64.000,305.218 63.685,305.282 63.300 C 305.363 62.823,305.177 62.637,304.700 62.718 C 304.315 62.782,304.000 62.640,304.000 62.402 C 304.000 62.164,303.595 62.005,303.100 62.047 C 302.605 62.090,301.265 62.096,300.122 62.062 L 298.044 62.000 297.922 60.100 L 297.800 58.200 295.900 58.078 C 293.948 57.953,293.769 57.749,293.941 55.847 C 294.067 54.454,293.324 54.138,289.727 54.054 C 285.631 53.959,286.107 54.216,285.924 52.000 C 285.838 50.973,285.565 50.179,285.287 50.150 C 285.019 50.123,283.900 50.078,282.800 50.050 C 281.431 50.016,280.800 49.833,280.800 49.470 C 280.800 48.820,279.131 47.200,278.462 47.200 C 278.194 47.200,277.871 46.930,277.745 46.600 C 277.563 46.126,276.728 46.000,273.757 46.000 L 270.000 46.000 269.950 44.600 C 269.870 42.365,269.827 42.203,269.300 42.150 C 269.025 42.123,267.185 42.078,265.210 42.050 L 261.620 42.000 261.860 40.800 C 262.010 40.052,261.935 39.600,261.663 39.600 C 261.418 39.600,261.338 39.305,261.482 38.931 C 261.677 38.423,261.577 38.323,261.069 38.518 C 260.701 38.659,260.400 38.589,260.400 38.362 C 260.400 38.135,259.905 37.987,259.300 38.035 C 258.695 38.082,256.270 38.093,253.910 38.060 L 249.620 38.000 249.860 36.800 C 250.010 36.052,249.935 35.600,249.663 35.600 C 249.418 35.600,249.338 35.305,249.482 34.931 C 249.677 34.423,249.577 34.323,249.069 34.518 C 248.701 34.659,248.400 34.589,248.400 34.362 C 248.400 34.135,247.905 33.987,247.300 34.035 C 243.157 34.358,232.800 33.955,232.800 33.470 C 232.800 32.745,231.097 31.200,230.298 31.200 C 229.940 31.200,229.519 30.992,229.362 30.738 C 229.173 30.433,229.254 30.386,229.600 30.600 C 229.942 30.812,230.027 30.767,229.844 30.472 C 229.466 29.860,171.154 29.873,169.400 30.485 M168.666 32.500 C 167.970 33.215,167.336 33.652,167.257 33.471 C 167.064 33.027,168.815 31.200,169.435 31.200 C 169.708 31.200,169.362 31.785,168.666 32.500 M231.610 33.930 C 231.003 34.132,230.000 33.230,230.000 32.481 C 230.000 32.009,230.245 32.091,231.024 32.822 C 231.587 33.351,231.851 33.850,231.610 33.930 M279.610 49.930 C 279.003 50.132,278.000 49.230,278.000 48.481 C 278.000 48.009,278.245 48.091,279.024 48.822 C 279.587 49.351,279.851 49.850,279.610 49.930 M234.406 111.438 C 234.399 112.456,235.582 113.602,236.631 113.594 C 237.273 113.589,237.237 113.506,236.408 113.086 C 235.862 112.810,235.190 112.138,234.914 111.592 C 234.452 110.680,234.411 110.668,234.406 111.438 M244.253 116.048 C 244.664 116.404,245.270 116.795,245.600 116.916 C 246.066 117.088,246.040 117.144,245.482 117.168 C 244.556 117.209,242.792 115.450,242.825 114.518 C 242.848 113.886,242.890 113.896,243.178 114.600 C 243.358 115.040,243.842 115.692,244.253 116.048 M39.226 139.369 C 38.951 139.700,38.914 140.023,39.135 140.160 C 39.341 140.287,39.718 140.139,39.974 139.831 C 40.249 139.500,40.286 139.177,40.065 139.040 C 39.859 138.913,39.482 139.061,39.226 139.369 M33.600 171.013 C 33.600 171.084,33.015 171.423,32.300 171.766 C 31.013 172.385,31.009 172.384,31.883 171.645 C 32.369 171.235,32.644 170.777,32.495 170.629 C 32.346 170.480,32.534 170.476,32.912 170.622 C 33.290 170.767,33.600 170.943,33.600 171.013 M108.940 171.811 C 108.811 172.147,108.322 172.626,107.853 172.876 C 107.097 173.278,107.113 173.210,108.000 172.272 C 109.168 171.036,109.254 170.994,108.940 171.811 M103.188 197.090 C 103.562 196.744,103.639 196.739,103.452 197.072 C 103.306 197.332,103.370 197.658,103.593 197.796 C 103.817 197.934,104.000 198.926,104.000 200.000 C 104.000 201.074,103.817 202.066,103.593 202.204 C 103.370 202.342,103.306 202.668,103.452 202.928 C 103.639 203.261,103.562 203.256,103.188 202.910 C 102.869 202.613,102.489 202.560,102.230 202.776 C 101.930 203.024,101.800 202.186,101.800 200.000 C 101.800 197.814,101.930 196.976,102.230 197.224 C 102.489 197.440,102.869 197.387,103.188 197.090 M102.588 198.087 C 102.227 199.029,102.545 202.200,103.000 202.200 C 103.543 202.200,103.752 198.392,103.237 197.877 C 102.956 197.596,102.751 197.662,102.588 198.087 M103.087 201.100 C 102.995 201.705,102.920 201.210,102.920 200.000 C 102.920 198.790,102.995 198.295,103.087 198.900 C 103.178 199.505,103.178 200.495,103.087 201.100 M39.040 259.935 C 38.913 260.141,39.061 260.518,39.369 260.774 C 39.700 261.049,40.023 261.086,40.160 260.865 C 40.287 260.659,40.139 260.282,39.831 260.026 C 39.500 259.751,39.177 259.714,39.040 259.935 " stroke="none" fill="#fc3f04" fill-rule="evenodd"></path></g></svg>